<?xml version="1.0" encoding="UTF-8"?>
<svg width="611px" height="706px" viewBox="0 0 611 706" version="1.1" xmlns="http://www.w3.org/2000/svg" xmlns:xlink="http://www.w3.org/1999/xlink">
    <title>SVG</title>
    <g id="Comp1" stroke="none" stroke-width="1" fill="none" fill-rule="evenodd">
        <g id="logo" transform="translate(-199, -164)" fill-rule="nonzero">
            <g id="SVG" transform="translate(199.3308, 164.9306)">
                <g id="Shield" transform="translate(0, -0)" fill="#FCFCFC">
                    <path d="M308.461484,1.70313313 C358.509102,37.4014074 411.28666,68.1473735 469.05909,89.8010732 C513.238247,106.359882 558.933423,116.484339 605.661369,122.230631 C609.01488,122.643 609.960996,123.609833 609.990775,127.022995 C610.361251,169.494794 610.175494,211.946027 606.450531,254.300934 C603.45761,288.332019 598.16073,321.995983 590.106603,355.628337 C568.118873,449.00081 525.186618,530.4982 457.569679,598.457116 C418.285377,637.940114 372.876342,669.136482 324.325428,695.999356 C322.739925,696.876604 321.153886,697.924893 319.565948,698.987852 L318.374617,699.785379 C314.534599,702.348306 310.681494,704.768595 306.796048,704.839211 C302.520154,704.914626 298.150656,702.17821 293.837625,699.474558 L293.02963,698.968702 C291.684197,698.128563 290.345194,697.308986 289.017202,696.596781 C215.004158,656.903007 150.07081,606.395114 100.841766,537.455969 C68.0718025,491.565761 43.9309326,441.373179 27.8538167,387.334806 C15.2896378,345.104083 6.87330354,302.097257 3.51478817,258.096137 C0.18977467,214.533687 -0.151013861,170.918391 0.0435154805,127.273285 C0.0583747567,123.938508 1.25908266,123.266482 4.27725241,122.890239 C59.8757029,115.959197 113.742386,102.5367 165.290127,80.2001111 C213.466995,59.3242078 258.178129,32.5465843 300.50051,1.65329127 C303.616577,-0.621300787 305.378644,-0.495789794 308.461484,1.70313313 Z M309.624722,36.7237516 C306.775178,34.7755617 304.692093,33.2834643 300.973629,35.9946373 C266.452002,61.1648744 229.014591,81.297124 190.023843,99.447331 C138.806089,122.197769 85.8619674,137.882852 30.9649104,147.000382 C28.790535,147.361491 27.502761,147.458519 27.4626234,150.395634 C26.6460921,210.123912 29.8656709,269.442201 41.4700197,328.271933 C55.7754105,400.794741 84.1220823,466.951132 127.96927,526.396656 C174.257934,589.152121 234.513888,635.302962 302.430057,672.265731 C304.913672,673.617412 306.584936,673.159366 308.77478,671.998202 C341.657151,654.562494 372.555661,634.127397 401.577502,610.838819 C458.320945,565.304807 501.321242,509.055597 531.525301,443.041025 C557.320804,386.661834 570.638858,326.938894 577.615179,265.616975 C581.821501,228.643101 582.613592,191.519199 582.555898,154.356791 C582.541278,147.323992 582.537556,147.328691 575.594553,146.179427 C534.917562,139.446408 495.19834,129.086643 456.657066,114.401255 C404.481023,94.5207131 355.67753,68.2092831 309.624722,36.7237516 Z" id="Combined-Shape"></path>
                </g>
                <g id="Fist" transform="translate(150.5515, 212.2214)">
                    <path d="M36.9279191,82.0616572 C39.0422165,77.8148167 41.325551,73.863698 42.4999877,69.6066353 C43.7616584,65.0334676 46.044107,65.2193775 49.6424774,66.4557539 C65.3079409,71.8383122 81.0291491,77.0585463 96.7311658,82.3346792 C100.271838,83.5243721 132.112559,92.6753127 134.822236,95.8841665 C134.986605,96.2390824 134.879844,96.6018999 134.961829,96.7723097 C139.508359,105.258059 133.623543,116.768522 124.088151,118.19572 C120.301186,118.762542 116.476661,118.595762 112.695494,117.90427 C97.6722173,115.156818 83.0438258,110.739872 68.1674017,107.371533 C66.8327464,107.069372 65.7179607,106.390756 64.3303371,105.291683 C62.3894998,105.506091 62.9712112,106.900397 62.7244604,108.235845 C62.9693495,110.067084 62.4723706,111.472252 61.9734691,112.890265 C55.9660253,129.964101 50.6961173,147.276663 45.2838704,164.542968 C44.7360888,166.290512 44.2237317,168.042326 42.9314276,169.876707 C42.7103981,173.16236 44.7144558,171.501531 45.6018051,171.352694 C57.2508848,169.39834 68.9153116,167.503179 80.4998881,165.209533 C86.7076742,163.980449 92.0433351,164.66648 97.3055845,168.549618 C107.879177,176.352204 119.070852,183.333103 129.481693,191.336945 C153.557816,209.846553 165.069561,235.078012 165.367541,264.94473 C165.902721,318.579368 165.523274,372.223283 165.490016,425.863291 C165.487148,430.521311 156.699788,434.593136 152.097971,431.819474 C141.700676,425.552618 131.443004,419.05088 121.199643,412.532849 C108.980721,404.757785 97.1466786,396.422643 85.5285383,387.773654 C83.0501416,385.928656 82.0781208,383.909739 82.0898376,380.704455 C82.2120682,347.220236 82.2221684,313.734919 82.0201174,280.251311 C81.9940302,275.929105 83.3227046,275.477223 87.0830633,276.171676 C100.161171,278.586882 113.294781,280.701545 126.674225,282.296163 C120.877467,278.5319 115.025939,274.848981 109.293133,270.989826 C79.8231331,251.150871 52.8134052,228.19103 25.9330475,205.076126 C17.7306331,198.022671 9.52580708,190.957865 2.18450178,182.971169 C0.715898988,181.373501 -0.691009117,180.084369 0.371907044,177.376674 C12.6332395,146.142593 24.7616013,114.856367 36.9327102,83.2201059 C36.8296711,82.6450773 36.7192174,82.433873 36.9279191,82.0616572 Z" id="Path" fill="#FDFEFE"></path>
                    <path d="M170.697985,95.1672569 C175.298216,82.2426241 179.614869,69.6094118 184.08762,57.0316694 C187.422763,47.6529566 195.189162,44.3444201 204.287531,48.3006648 C209.00267,50.350948 213.636647,52.587568 218.350749,54.6402618 C222.607659,56.493835 225.305528,59.5917161 226.396698,64.4789123 C226.282766,64.9804073 226.164441,65.2096743 226.054598,65.2056171 C219.063448,64.9508718 217.613396,70.2285603 215.491653,75.2790875 C209.636708,89.2161078 204.310476,103.352676 198.97454,117.488452 C197.683944,120.90726 196.417697,124.334975 194.845658,127.637074 C190.891671,135.942681 189.093783,136.761439 179.990288,134.601617 C175.918219,133.635486 171.986506,132.28585 168.490382,129.980272 C165.738017,128.165114 162.899122,126.291832 162.301086,122.242311 C162.561415,120.746064 162.783237,119.63378 162.995905,118.180068 C165.171166,110.281368 167.603703,102.807275 170.697985,95.1672569 Z" id="Path" fill="#FCFDFD"></path>
                    <path d="M220.370276,239.797239 C208.795311,247.385021 197.789088,255.518723 184.38853,259.264863 C178.97967,260.776976 179.002066,260.799371 179.205276,255.077458 C179.293761,252.584141 179.299618,250.087834 179.45163,247.202743 C187.164449,240.96414 195.171892,235.77399 201.555366,228.265784 C210.609675,217.616125 216.58203,205.632299 220.420072,192.385947 C220.787314,191.118418 220.875249,189.746478 222.227419,188.652378 C235.753809,189.732321 247.322733,195.889029 259.444046,200.313205 C261.498968,201.06325 261.07064,202.453805 260.467174,203.941996 C248.7582,232.818173 230.205631,254.891396 199.355329,265.292322 C198.634697,265.397284 198.260804,265.299401 197.348739,264.986287 C206.465232,259.005876 213.652086,250.75391 220.167921,241.394847 C220.459799,240.551679 220.849253,240.171195 221.382175,239.571146 C221.687844,239.254737 221.810381,239.130248 222.116904,238.823908 C222.416776,238.518055 222.532844,238.394055 222.475481,238.453004 C222.178477,238.752876 222.054843,238.869675 221.742094,239.161126 C221.279472,239.554425 220.971912,239.702531 220.370276,239.797239 Z" id="Path" fill="#FFFFFF" opacity="0.300000012"></path>
                    <path d="M216.708349,143.227295 C222.267084,126.41278 227.940177,109.960352 233.651045,93.5210137 C235.065214,89.4500429 236.482617,85.3730932 238.106649,81.3835895 C241.419762,73.2450064 249.157296,70.0523236 257.171147,73.4349126 C260.377529,74.7882715 263.442276,76.5305971 266.726647,77.6341548 C272.508973,79.5769747 276.38247,83.1848654 278.040003,89.4461986 C271.721093,91.3432209 269.709865,96.3975004 267.664952,101.783781 C261.71188,117.464257 255.081687,132.881566 249.478465,148.703647 C246.484874,157.156688 243.636946,158.426047 235.119342,155.558592 C228.005046,153.163584 221.009685,150.515937 216.708349,143.227295 Z" id="Path" fill="#FCFDFD"></path>
                    <path d="M222.197334,188.392844 C217.835158,211.032249 206.273983,229.111393 187.735755,242.67452 C185.463589,244.336874 183.131985,245.974391 179.944092,246.754582 C180.927433,221.559188 172.492394,200.113596 154.304871,182.12196 C153.73628,181.468942 153.593972,181.001926 153.886125,180.170596 C162.384384,183.05526 170.07432,187.330356 177.323174,192.390219 C178.766696,193.397847 179.741066,193.960122 181.695908,193.147466 C194.577336,187.792673 207.989305,186.243763 222.197334,188.392844 Z" id="Path" fill="#FBFCFC"></path>
                    <path d="M126.069783,37.1690993 C127.326357,34.5322227 128.179656,32.0416822 129.191556,29.6172916 C132.385153,21.9658012 139.700584,18.5618532 147.412764,21.4947575 C153.388444,23.767259 159.240337,26.4053254 165.007865,29.1716033 C169.088538,31.1287946 171.756995,34.4364153 172.241891,39.4898719 C171.988764,39.963845 171.836509,40.1695263 171.727032,40.1488691 C164.349051,38.7560884 163.205401,44.36111 161.387497,49.2841276 C158.515037,57.0633106 155.607184,64.829465 152.588054,72.5538791 C151.241102,76.0000554 148.944862,77.8746198 145.265971,76.4936779 C135.971685,73.0049374 126.472754,69.9545326 117.744831,64.3045972 C116.019958,58.6718107 119.337435,54.3800555 120.710199,49.2869341 C122.124674,46.4999999 122.801949,43.8470742 123.795328,40.9165204 C124.289713,39.3616904 124.742389,38.1961331 126.069783,37.1690993 Z" id="Path" fill="#FCFDFD"></path>
                    <path d="M107.85068,4.51364728 C112.768967,6.62083602 114.888604,10.4469467 115.999729,15.3897056 C109.237998,16.462324 107.49433,21.8915048 105.230066,26.9459363 C102.244102,33.6114015 99.7258868,40.4430352 97.2867899,47.3211384 C94.5801631,54.9537113 93.5291167,55.4012313 86.0408654,52.8971433 C79.4394755,50.6896919 72.7410263,48.7366509 66.3676826,45.9039792 C64.3449214,45.004974 61.7660181,44.4900534 61.8667377,41.1319349 C62.4523243,39.729269 62.8435796,38.6585723 63.2390451,37.2445255 C64.030495,33.6326076 65.1799733,30.4915514 66.7943624,27.1509777 C67.7215604,25.1048128 68.4273031,23.3437526 69.1302992,21.2246341 C69.0437671,20.2415992 68.9748707,19.6160729 69.1066825,18.6693165 C69.207739,18.1454255 69.2583277,17.9370897 69.4078053,17.4210103 C70.5957896,15.2499303 71.3959359,13.2337898 72.7196982,11.1310253 C74.4368525,8.44838102 75.3080908,5.55642513 78.1143094,3.66474289 C79.8171222,1.29188685 82.3209353,0.975111918 84.8299364,0.026188862 C89.3074176,-0.333731162 105.568261,3.11137733 107.85068,4.51364728 Z" id="Path" fill="#FCFCFC"></path>
                    <path d="M64.035957,105.38145 C80.1638297,108.771514 96.3488509,112.500964 112.533567,116.231908 C113.020173,116.3441 113.498142,116.499834 113.988623,116.588226 C128.738483,119.247011 135.841276,112.862622 134.961982,97.3791015 C140.623816,99.5054507 144.362847,106.179276 143.881184,112.716591 C143.276162,120.927733 137.771098,127.626914 130.105267,129.814226 C123.459817,131.710363 116.908284,130.17555 110.340305,129.548834 C101.096883,128.666945 91.9527147,126.717596 82.6190376,126.849865 C80.5217961,126.879584 79.2793478,125.985278 78.0657953,124.463218 C73.2041984,118.366007 68.2137192,112.369396 64.035957,105.38145 Z" id="Path" fill-opacity="0.3" fill="#FFFFFF"></path>
                    <path d="M216.286308,143.031896 C222.578733,148.69968 229.606193,152.703829 237.689794,154.934377 C243.728116,156.600515 245.320414,156.009009 247.41372,150.027562 C253.828804,131.697121 261.735131,113.946926 268.402548,95.7254436 C270.118054,91.037246 272.242116,88.8540831 277.597701,89.8781264 C278.497377,92.9888842 278.176514,96.0428904 277.037561,99.0952789 C270.070089,117.768919 263.230217,136.490188 256.241813,155.155956 C251.772357,167.093769 245.248101,170.032746 233.290454,165.694002 C229.221132,164.217405 225.313401,162.378814 221.657394,160.041718 C214.58203,155.518804 213.138021,151.211 216.286308,143.031896 Z" id="Path" fill-opacity="0.3" fill="#FFFFFF"></path>
                    <path d="M162.00213,122.052771 C167.959717,131.172132 177.534622,132.87464 187.048992,134.455709 C190.034651,134.951895 191.294612,132.299915 192.23249,129.933528 C196.751253,118.531718 201.19508,107.100251 205.71659,95.6995383 C209.566836,85.991083 213.653062,76.3725151 217.310778,66.5929358 C219.39493,61.0205932 222.856698,65.7125121 225.975938,64.949469 C226.516305,70.1932578 223.443566,74.5327333 221.695717,79.237041 C214.817095,97.7503104 207.436124,116.073246 200.950862,134.739105 C196.760835,146.798662 190.992971,149.201725 179.100436,144.347329 C175.726298,142.969957 172.420264,141.426111 169.081033,139.96294 C160.020103,135.992781 158.22618,131.709722 162.00213,122.052771 Z" id="Path" fill-opacity="0.3" fill="#FFFFFF"></path>
                    <path d="M43.1492527,170.201599 C42.7415204,169.632672 42.4391768,168.94005 42.607329,168.391627 C48.7115571,148.481764 54.5479502,128.482653 62.4088753,108.788478 C66.2678479,116.396002 67.3217927,125.006514 69.9978772,133.144914 C71.700934,138.32408 74.854073,144.287342 73.5749185,148.835276 C72.268152,153.481336 65.1588592,155.129776 60.7335834,158.303267 C55.0649755,162.36844 49.2346842,166.20819 43.1492527,170.201599 Z" id="Path" fill-opacity="0.3" fill="#FFFFFF"></path>
                    <path d="M70.5798015,53.679013 C69.0196015,53.1134426 67.8640513,52.5297176 66.6508337,52.1144188 C58.6165404,49.3645258 58.6125132,49.3762737 61.3096198,41.3464956 C61.3843431,40.9685429 61.7186018,40.8674874 61.8898664,40.8337106 C62.1290186,43.215415 64.1195297,43.6041377 65.7883518,44.2018682 C73.9328249,47.1189665 82.1404264,49.865472 90.2344627,52.9145351 C92.8424446,53.89696 93.6307521,53.1067909 94.477185,50.7440949 C98.1226347,40.5687142 101.869385,30.4436781 106.414511,20.5986198 C108.410788,16.2745534 110.502842,14.1725217 115.593675,15.7131633 C116.864927,20.4433753 113.482185,23.9663195 112.520996,28.5141308 C113.1327,29.9406883 113.045345,31.109938 112.629863,32.1962559 C109.042203,41.5768914 106.00385,51.1647028 102.008183,60.3907647 C101.677189,61.1550286 101.12236,61.7727743 100.174169,62.5391738 C94.0613372,62.5311493 89.1560773,59.3924127 83.7546325,57.890582 C79.4379187,56.6904229 75.219729,55.1360209 70.5798015,53.679013 Z" id="Path" fill-opacity="0.3" fill="#FFFFFF"></path>
                    <path d="M117.175477,70.8433651 C115.3598,68.885441 116.445295,66.1647912 117.175477,64.1764477 C126.629525,67.6454468 135.94758,71.2212684 145.094676,75.1910907 C148.665555,76.7408866 150.087047,75.7652654 151.30295,72.3873136 C154.626834,63.1527094 158.115941,53.9743378 161.718368,44.8442064 C164.847068,36.914721 162.969787,37.7505358 171.745583,39.8508288 C171.466948,45.9116678 168.381393,51.1509424 166.452486,56.7727139 C164.46109,62.576582 162.203021,68.2888829 159.994868,74.4083062 C159.665514,75.8708014 159.565464,77.3473626 159.354855,78.7630961 C159.032242,80.9317223 158.450209,82.9576208 156.387192,84.5716042 C154.651854,84.3559757 153.288761,84.0685224 151.565261,83.7273989 C149.965793,83.8954581 122.212029,72.0316843 117.175477,70.8433651 Z" id="Path" fill-opacity="0.3" fill="#FFFFFF"></path>
                </g>
                <g id="Circuit" transform="translate(49.4018, 60.2518)">
                    <path d="M510.131012,128.69365 C509.718307,132.67464 506.977049,130.944061 505.446629,130.95056 C482.962835,131.045848 460.477699,131.034956 437.994516,130.8528 C434.692081,130.826041 432.501321,131.816612 430.369449,134.3088 C412.306537,155.424712 395.166246,177.320356 376.5745,197.986826 C373.802425,201.068231 371.216901,205.789106 367.88011,206.464031 C364.738412,207.099473 360.714553,203.399225 357.089668,201.584737 C356.657375,201.368347 356.293488,201.015506 355.783084,200.641887 C379.567054,175.74548 400.455193,148.443294 423.346139,122.873946 C427.042056,118.745552 430.735776,116.814144 436.517248,116.916786 C458.661748,117.309841 480.817598,117.059857 502.969178,117.070688 C511.921455,117.075051 510.098608,116.98257 510.167321,124.216839 C510.179953,125.54884 510.1434,126.881268 510.131012,128.69365 Z" id="Path" fill="#F8F9FA"></path>
                    <path d="M490.154816,198.208403 C503.241406,201.437334 511.737956,214.858031 508.74949,227.579545 C505.555618,241.175564 493.723436,248.412976 479.431135,245.554857 C473.607128,244.390215 468.87655,241.434031 465.473976,236.644351 C463.743885,234.208884 461.754443,233.678159 458.884608,233.317141 C450.511387,232.263837 444.321115,235.056691 439.032045,241.5782 C436.075373,245.22368 433.120958,249.162228 428.426384,251.619756 C419.504009,251.635561 411.00636,251.542499 402.513105,251.693625 C399.778498,251.742291 398.869547,251.00738 398.693309,248.120946 C398.574256,246.170867 398.474643,244.580881 398.465368,243.290136 L398.465524,242.892409 C398.50764,237.978728 400.11457,237.750437 407.823777,238.313143 C418.694221,239.106637 427.967667,237.010769 434.149151,227.465308 C438.605887,220.583233 444.999961,220.089533 451.674089,220.373516 L452.365447,220.405438 C453.057668,220.439673 453.752275,220.480161 454.447432,220.520689 C458.589068,220.762161 460.725822,219.977332 461.868924,215.142433 C464.774275,202.854311 478.162507,195.249443 490.154816,198.208403 Z M490.333799,211.211025 C485.435161,208.634776 479.956794,209.666997 476.322634,213.851044 C471.627694,219.256425 472.634772,227.422225 478.55184,231.926313 C484.325683,236.321382 491.526512,234.218617 496.141938,226.446452 C497.837123,219.509553 495.650206,214.007051 490.333799,211.211025 Z" id="Combined-Shape" fill="#F7F9F9"></path>
                    <path d="M32.9668922,198.809306 C41.4247538,201.723598 46.3269612,208.074668 48.3189361,216.446973 C49.1793744,220.063375 50.675957,220.997836 53.9732646,220.566488 C55.6095927,220.352477 57.337089,220.779584 58.9586188,220.517058 C67.3186583,219.163608 74.1524576,221.90038 78.7369443,228.826662 C84.8353444,238.040153 93.7086569,239.164458 103.877325,238.419385 C107.037757,237.617531 109.783774,237.566911 112.91351,238.555988 C112.187204,241.365379 110.623433,243.816712 110.070099,246.47815 C109.095332,251.166348 106.484544,252.607947 102.054143,251.876849 C100.757139,251.662869 99.3944736,251.847039 98.0618939,251.848748 C97.5579226,251.849404 97.0690991,251.850014 96.594658,251.850243 L95.6647251,251.850095 C81.2372286,251.836563 80.720059,251.217374 69.7994966,239.365044 C67.8141425,237.210318 66.2301429,233.946176 63.14706,233.684353 C57.8623227,233.235582 52.4958134,233.478733 47.1836462,233.78196 C45.5075314,233.877646 44.9177356,236.04537 43.8744688,237.292304 C36.1787975,246.490843 21.6477391,248.903914 11.6932348,242.596324 C1.21369478,235.956001 -2.23968219,222.756454 3.39261637,210.869077 C8.56288763,199.956801 21.1961919,194.753531 32.9668922,198.809306 Z M25.2748822,209.763689 C18.4720212,209.420185 14.1965289,213.535245 13.225333,221.798348 C14.501558,230.251235 18.7685669,234.428144 25.2740584,233.984743 C31.5506178,233.556935 37.0280068,227.808354 36.8369408,221.849395 C36.628819,215.358915 31.5806713,210.082112 25.2748822,209.763689 Z" id="Combined-Shape" fill="#F8F9FA"></path>
                    <path d="M80.1380854,133.135401 C78.3100205,131.075323 76.3303724,130.91483 73.9548929,130.916753 C51.1337591,130.935365 28.3118925,130.80929 5.49213151,130.979638 C1.57230204,131.008899 0.00935654228,130.355241 0.0923183349,125.970333 C0.260668475,117.072702 -0.0260379697,117.064738 8.84152355,117.068462 C32.3290091,117.078347 55.8167077,117.139127 79.3037044,117.039937 C82.2118633,117.027972 84.264893,117.836936 86.2188188,119.99691 C104.406739,140.103179 122.657025,160.153337 140.97459,180.141525 C142.440416,181.740963 142.739891,183.185156 142.05804,185.04178 C141.086142,187.688085 140.092061,190.326303 139.048094,193.345709 C139.16285,194.318522 139.078789,194.873779 138.489053,195.552793 C136.342108,196.204346 135.367678,194.956802 134.279101,193.724118 C127.345008,185.872285 90.194683,144.46798 80.1380854,133.135401 Z" id="Path" fill="#F8F9FA"></path>
                    <path d="M410.388675,84.3208934 C417.41644,93.3523799 417.780143,105.224624 411.016367,113.89439 C404.15294,122.69179 394.728033,124.264773 384.515183,122.13879 C381.418339,121.494133 379.71278,122.036117 377.803401,124.349414 C374.949249,127.807368 371.786803,131.020615 368.643032,134.227669 C363.753974,139.215036 364.166984,145.672867 369.666892,150.3686 C372.347074,152.656814 375.540867,153.657008 378.798544,154.570884 L379.688247,154.818885 C380.133553,154.942719 380.579286,155.066978 381.024307,155.194712 C380.36592,156.461509 379.136652,156.497238 378.071845,156.666061 C370.435916,157.876776 366.060009,162.540625 364.064098,169.757411 C363.666161,171.196479 363.440616,172.690742 362.9462,174.092799 C362.643093,174.952321 362.354694,176.179971 361.018452,175.961627 C360.315839,175.846816 360.181507,175.366363 360.135328,174.841228 L360.119535,174.61437 C360.106339,174.386648 360.096736,174.15914 360.052931,173.957112 C359.311368,170.537114 358.472411,167.164625 356.543321,164.161696 C352.927894,158.533547 347.522025,156.100613 340.750562,155.424407 C342.512202,153.509596 344.815429,153.534616 346.738783,152.80001 C353.831721,150.090758 358.888289,144.824573 358.03255,137.487448 C357.013571,128.750981 361.197314,123.404732 366.492791,118.121705 C369.788696,114.833611 371.060436,112.219923 368.672872,107.183921 C363.830559,96.9701248 369.147028,84.2079681 380.06379,77.498719 C392.101927,72.3859472 403.105464,74.9611282 410.388675,84.3208934 Z M397.567173,89.1818184 C389.657552,86.0513192 383.49358,87.8707797 380.61447,93.8770337 C377.838001,99.669063 380.082707,106.32928 385.917636,109.612339 C391.206706,112.588234 397.77496,111.013906 401.290062,105.927773 C405.069216,100.459537 403.801504,94.2715234 397.567173,89.1818184 Z" id="Combined-Shape" fill="#F8F9FA"></path>
                    <path d="M250.380378,15.4978611 C250.389745,12.3469647 249.088775,10.076172 245.744997,8.59046731 C249.965659,6.25088417 254.089384,4.76017543 256.952537,0 C257.480364,1.06149742 257.769861,1.63808173 258.054477,2.2170466 C259.878393,5.92663361 266.975083,7.38827968 266.269463,9.08184724 C264.746976,12.7363743 264.180552,16.1352113 264.179027,19.8754927 C264.161452,64.4752883 264.144792,109.075115 264.121175,153.67491 C264.120687,154.64156 264.040746,155.608149 263.983566,156.896366 C259.345623,155.852093 255.603481,153.312397 251.144245,151.685834 C249.146534,151.094328 249.422119,149.861217 249.985827,148.229284 C250.27917,136.289242 250.296683,43.61577 250.380378,15.4978611 Z" id="Path" fill="#F6F7F8"></path>
                    <path d="M131.568447,77.935101 C140.964888,83.1598513 145.835058,94.4087053 143.294691,105.6207 C139.379698,111.198261 140.310253,115.563915 144.795178,120.0529 C147.912375,123.172872 149.454389,127.050457 149.667119,132.014421 C149.949844,138.612821 154.641275,142.972434 161.303291,145.239262 C157.534817,147.850843 153.284955,149.345259 150.589313,153.128746 C148.514041,156.041573 147.567467,159.220982 146.722438,162.562258 C146.475504,163.53855 146.091145,164.893618 144.447678,164.693917 C143.482324,164.576599 143.453251,163.978219 143.421178,163.36563 L143.409088,163.161547 C143.401699,163.059883 143.391327,162.959266 143.373625,162.861855 C141.547087,152.812123 137.433034,148.663896 127.283862,146.568394 C126.517157,146.410098 125.79921,146.015517 124.133103,145.374918 C129.265128,144.097625 133.616473,143.396033 137.198671,140.636772 C140.488687,138.10263 141.627791,135.353165 138.787064,131.775208 C137.443591,130.083043 136.212768,128.301388 134.868043,126.610292 C132.199312,123.254126 129.594139,121.478572 124.496714,122.762364 C114.040318,125.395761 103.075409,119.519824 98.2391374,109.989833 C93.5892937,100.827298 95.939358,88.5173592 103.750365,81.1213459 C111.053866,74.2058656 122.503092,72.89446 131.568447,77.935101 Z M128.332651,90.9580438 C124.848976,87.6002603 119.044376,86.3844192 114.92721,88.4732693 C109.918912,91.0142165 107.951713,95.3302894 108.573272,101.229598 C109.313859,103.517296 110.153854,105.300202 111.490981,106.835321 C115.940117,111.943271 123.210848,112.147214 128.31767,107.285922 C133.211975,102.626925 133.218382,95.6671716 128.332651,90.9580438 Z" id="Combined-Shape" fill="#F7F9F9"></path>
                    <path d="M299.667699,147.842667 C299.667455,156.669082 299.667455,164.995558 299.667455,173.782431 C295.318764,172.907987 291.83155,170.382907 288.12587,168.464282 C286.082177,167.406127 287.011083,165.152238 287.008033,163.437983 C286.943164,126.963742 286.924246,90.4894097 286.948656,54.0151087 C286.950242,51.6085668 286.48579,49.774797 284.703279,47.8411914 C279.700839,42.4146651 280.7164,34.4575967 286.610645,29.813246 C292.641277,25.0614311 301.12007,26.1087091 305.693145,32.170266 C309.838992,37.6655967 308.518189,45.6157693 302.225518,49.5155055 C299.334935,51.3069561 299.750936,53.5252685 299.747153,55.9076748 C299.6987,86.3859749 299.688082,116.864366 299.667699,147.842667 Z" id="Path" fill="#FBFCFC"></path>
                    <path d="M115.549105,226.06133 C107.295583,215.941268 97.5734274,207.78398 88.8232614,198.684421 C80.522506,190.052183 71.7901897,181.836343 63.3847474,173.302355 C61.5721227,171.461994 59.7337447,170.905974 57.2545241,170.918149 C39.7751842,171.004009 22.2943796,170.872441 4.81606144,171.029914 C1.37882551,171.060913 -0.115971484,170.632709 0.00699197572,166.577147 C0.29822859,156.970937 0.0459098418,156.969351 9.56978306,156.969351 C27.2160544,156.96932 44.8626606,157.011701 62.5082611,156.899519 C65.0135689,156.883947 66.813013,157.508192 68.6139839,159.302846 C82.8765665,173.514871 97.242799,187.622911 111.56662,201.773607 C112.749844,202.94249 113.704564,204.393671 115.021187,205.368132 C122.805038,211.129039 122.408444,217.84427 117.471544,225.515044 C116.967211,226.208398 116.461719,226.340636 115.549105,226.06133 Z" id="Path" fill="#F9FAFA"></path>
                    <path d="M490.224627,157.018017 C496.217546,157.019542 501.713915,157.129294 507.202411,156.970692 C509.62793,156.900607 510.213578,157.72919 510.301513,160.086424 C510.70836,170.989242 510.790132,170.941306 499.973084,170.984939 C484.165435,171.04874 468.357907,171.262842 452.55093,171.216403 C449.761158,171.208225 447.978404,172.195593 446.082572,174.076963 C430.728331,189.314191 415.202795,204.37933 399.903049,219.670534 C397.09796,222.474097 395.253449,223.252366 392.653523,219.643012 C391.040232,217.40328 387.597504,215.800759 387.225807,213.542079 C386.866986,211.361144 390.696972,210.077992 392.574253,208.27681 C409.248808,192.277819 424.967851,175.296984 442.285417,159.955222 C444.829383,157.701454 447.390804,156.811633 450.774582,156.864298 C463.755602,157.06644 476.741076,156.989732 490.224627,157.018017 Z" id="Path" fill="#F8F9FA"></path>
                    <path d="M317.646887,85.2869034 C325.541618,74.8605916 333.272196,64.8675194 341.006557,54.8773466 C341.310151,54.4851455 341.707844,53.7566721 341.96384,53.7975886 C346.352806,54.499028 348.235944,58.6007241 351.457827,60.9136851 C353.588113,62.4429458 352.05391,63.7884942 351.010339,65.0090644 C345.389604,71.5833603 339.857659,78.240892 334.024987,84.6228701 C331.952003,86.8911013 331.113961,89.0916559 331.124457,92.1320536 C331.229663,122.59055 331.198297,153.049506 331.205314,183.508339 C331.205741,185.275716 331.205375,187.043092 331.205375,189.723966 C326.441416,187.250421 322.385215,185.144331 318.057577,182.855382 C317.503724,182.588616 317.221367,182.504709 317.255234,182.112172 C317.284781,181.968562 317.309876,181.370884 317.331164,180.383349 C317.607897,167.546303 317.241393,88.8328175 317.646887,85.2869034 Z" id="Path" fill="#FAFBFB"></path>
                    <path d="M223.603578,140.398444 C213.496178,137.848069 211.912239,131.479089 212.213729,122.220837 C212.948396,99.6607636 212.414284,77.0589796 212.356647,54.4741006 C212.351796,52.5709764 212.604039,50.7877333 210.784944,49.076194 C204.556411,43.2158793 204.414805,35.7783086 210.079018,30.4707485 C215.787537,25.121708 224.036966,24.71572 229.528207,30.8841143 C235.019449,37.0525086 231.589419,46.8241348 227.963375,51.2622563 C226.385813,53.7268925 226.753086,56.0996876 226.750188,58.393944 C226.723154,79.6106359 226.700728,100.82745 226.759952,122.04402 C226.774323,127.18416 226.06733,132.286619 226.202559,137.432648 C226.238929,138.816489 226.850908,141.089296 223.603578,140.398444 Z" id="Path" fill="#F6F7F8"></path>
                    <path d="M469.229574,271.30737 C477.560017,271.28354 485.391406,271.321313 493.220477,271.204757 C495.662717,271.168418 496.250988,271.647273 495.695609,274.317102 C493.262095,286.015855 493.379688,286.040448 481.590468,286.025558 C455.766404,285.992849 429.942159,285.895455 404.118646,285.999927 C400.425231,286.014879 398.980489,285.352524 399.16356,281.179278 C399.592558,271.399974 399.3376,271.388837 409.251005,271.377517 C429.077205,271.354877 448.903404,271.332115 469.229574,271.30737 Z" id="Path" fill="#FBFCFC"></path>
                    <path d="M141.774248,407.188956 C147.215878,415.608127 148.080313,424.644191 142.805065,433.56797 C137.539093,442.476127 129.244227,445.24692 118.965349,444.241185 C105.573517,441.296474 97.3477608,431.60068 97.9090289,419.770939 C98.4840575,407.650114 107.477557,398.021569 119.518776,396.769357 C128.990519,395.784308 136.652781,399.265298 141.774248,407.188956 Z M121.866184,409.193207 L121.556732,409.197803 C116.295765,409.339258 111.952994,412.694965 110.578642,417.680745 C109.16966,422.792114 111.877384,428.004476 118.133654,431.61142 C129.106251,433.088993 136.262014,426.439516 133.654369,417.688008 C132.122056,412.545457 127.138259,409.047746 121.556732,409.197803 Z" id="Combined-Shape" fill="#F8F9FA"></path>
                    <path d="M403.77923,401.508723 C412.298847,407.858084 415.528419,416.47003 413.081724,427.371963 C408.125113,439.720285 397.744142,446.294336 386.612516,444.45666 C375.313928,442.591524 366.943087,434.035659 366.194994,423.724255 C365.427495,413.145139 369.053784,404.577923 378.453306,399.426951 C387.089967,394.694237 395.912203,395.645723 403.77923,401.508723 Z M397.987445,412.205614 C393.665972,408.205126 387.572118,407.739392 382.863264,411.049759 C375.90702,415.939793 376.762759,424.942659 385.081119,431.143366 C391.910618,433.326803 396.865275,431.639003 399.977986,426.366287 C402.628806,421.876021 401.760435,415.698321 397.987445,412.205614 Z" id="Combined-Shape" fill="#F8F9FA"></path>
                    <path d="M21.5965705,285.963924 C20.0385371,285.901313 18.751328,286.255802 18.3434438,284.65206 C17.3217191,280.635036 14.4862408,275.929477 15.7049194,272.792296 C17.1318129,269.118989 22.7098914,271.374465 26.3978754,271.350727 C49.1665287,271.20424 71.9371047,271.362748 94.7070699,271.41886 C96.4766735,271.423223 98.2462771,271.41944 100.588561,271.41944 C98.596036,276.020129 96.7723043,279.869826 95.2649816,283.839679 C94.2759059,286.44461 92.2870735,285.995961 90.3544437,285.995168 C67.5857904,285.985831 44.817107,285.967951 21.5965705,285.963924 Z" id="Path" fill="#F6F7F8"></path>
                    <path d="M409.246734,322.915951 C407.416869,322.912717 406.085448,322.910094 404.754088,322.907896 C394.201152,322.890443 394.311544,322.908629 396.049324,312.399751 C396.429442,310.100491 397.072451,309.363687 399.379462,309.372937 C427.170755,309.485674 454.962536,309.542609 482.754011,309.515088 C485.802891,309.512097 486.320802,310.168532 485.19198,313.123434 C481.431744,322.966601 481.551046,322.998394 471.155064,322.98265 C450.685122,322.951712 430.21518,322.937675 409.246734,322.915951 Z" id="Path" fill="#FDFEFE"></path>
                    <path d="M389.729498,373.237599 C380.674578,366.819708 388.753725,360.783705 389.142509,353.437212 C398.670121,363.009737 407.476733,371.589036 415.938256,380.496339 C419.16618,383.894215 422.4987,385.360438 427.220246,385.23601 C435.871125,385.008208 444.539397,385.541435 453.201018,385.567858 C456.487219,385.577866 457.122602,386.583724 455.290357,389.252608 C455.103013,389.525507 454.90975,389.811282 454.802836,390.120003 C452.036253,398.107124 446.693787,401.202626 438.166177,399.966708 C432.943196,399.209766 427.498881,399.516961 422.196814,399.916119 C417.973955,400.234054 414.976945,398.850335 412.122855,395.875234 C404.85911,388.303563 397.372079,380.946024 389.729498,373.237599 Z" id="Path" fill="#F7F9F9"></path>
                    <path d="M183.833463,70.291971 C193.575666,78.0591933 195.722794,87.9935292 194.642243,99.576428 C193.842249,108.151883 194.373584,116.85921 194.471711,125.505971 C194.500209,128.018571 194.128665,129.25806 191.1391,129.602785 C181.224659,130.746007 181.245224,130.906836 181.27125,120.927586 C181.296422,111.281558 181.244033,101.634492 181.386585,91.9902336 C181.426007,89.3252561 180.72176,87.2833634 178.888691,85.2964536 C172.577593,78.4555436 166.508941,71.3906766 160.184814,64.5622163 C158.235587,62.4575301 158.442641,61.3213864 160.574391,59.4972268 C168.994936,52.2916696 168.938062,52.2111174 176.024165,60.7551752 C178.571306,63.8263892 181.075455,66.9332417 183.833463,70.291971 Z" id="Path" fill="#FAFBFB"></path>
                    <path d="M114.019052,382.513792 C103.557286,394.365317 92.3826979,402.33694 75.2303551,400.057817 C61.6419639,398.252118 61.4574277,399.640779 56.0538472,385.195734 C66.6339078,385.195734 77.019944,385.126899 87.4041485,385.23485 C90.8173109,385.270306 93.4619371,384.764843 95.9234309,381.773692 C99.4971468,377.431044 103.976306,373.842712 107.957388,369.821904 C109.785422,367.975685 111.367774,367.303567 113.165417,369.728232 C113.458028,370.122874 113.889498,370.413409 114.249784,370.759293 C120.185676,376.459726 120.185433,376.45997 114.019052,382.513792 Z" id="Path" fill="#F5F6F7"></path>
                    <path d="M431.744746,375.577135 C430.752313,363.631327 424.612936,356.776566 412.646928,354.619002 C425.091424,352.66953 431.201754,345.31364 432.6872,333.476821 C433.135604,334.824474 433.583154,336.172493 434.032656,337.519841 C436.683965,345.468397 439.088249,347.229488 447.241722,347.223752 C455.696227,347.217832 464.150731,347.222409 473.22579,347.222409 C471.71209,351.386868 470.392019,355.054225 469.044305,358.711453 C468.34259,360.615523 466.647833,360.186281 465.223289,360.196838 C459.739187,360.237357 454.22323,360.586109 448.777269,360.12849 C439.462631,359.345797 437.230862,364.027007 434.358586,370.857237 C433.634963,372.577991 434.429557,375.057395 431.744746,375.577135 Z" id="Path" fill="#F6F7F8"></path>
                    <path d="M69.8483156,347.160469 C76.9269431,345.941577 77.5702271,339.757163 80.5248245,334.634872 C81.886422,339.144544 82.5009333,343.483714 84.8923719,347.175055 C87.3423928,350.956892 90.8016277,353.766497 94.4196475,357.317787 C84.6478488,360.140939 82.2576009,368.011017 80.4966317,377.841857 C78.2376158,372.979102 77.1377204,369.089373 75.0114622,365.703518 C72.6163012,361.889459 69.6430003,359.736167 64.82711,360.021516 C59.0234869,360.365264 53.1771156,359.94371 47.36501,360.204709 C44.3966511,360.338047 42.8831655,359.438554 41.9979208,356.566216 C41.0346573,353.440935 39.5345053,350.481089 38.1412677,347.144542 C48.9121504,347.144542 59.1558476,347.144542 69.8483156,347.160469 Z" id="Path" fill="#F5F6F7"></path>
                    <path d="M81.1887658,322.261713 C64.5782547,323.528876 48.1567038,322.689003 31.7423547,322.964953 C30.4874887,322.986068 29.5653857,322.673198 29.1407196,321.254452 C28.0094879,317.475054 26.749007,313.734407 25.4347039,309.651476 C45.7951677,309.651476 65.6716822,309.651476 86.2442961,309.651476 C84.5262891,313.977465 82.9575756,317.927547 81.1887658,322.261713 Z" id="Path" fill="#FCFDFD"></path>
                    <path d="M143.727351,468.103876 C146.751516,474.035833 151.776932,476.203832 158.022125,477.485885 C146.638378,479.958698 141.775621,487.782397 139.974621,498.871918 C137.154307,487.732481 132.739069,478.615072 119.173289,477.887056 C131.639479,475.972307 138.071741,468.848429 140.026553,456.9872 C141.194245,460.585113 142.361909,464.183025 143.727351,468.103876 Z" id="Path" fill="#F5F6F7"></path>
                    <path d="M377.185533,469.663832 C380.630275,474.613303 385.628932,476.337718 391.062506,477.994703 C378.713635,479.647598 375.285857,488.828532 372.333822,499.060055 C370.053906,488.07629 365.525195,479.41418 352.883043,477.619954 C365.501396,475.843241 371.460508,468.601465 372.230326,456.395512 C374.25266,461.015515 374.161551,465.689218 377.185533,469.663832 Z" id="Path" fill="#F5F6F7"></path>
                </g>
            </g>
        </g>
    </g>
</svg>